<?xml version="1.0" standalone="no"?>
<!DOCTYPE svg PUBLIC "-//W3C//DTD SVG 20010904//EN"
 "http://www.w3.org/TR/2001/REC-SVG-20010904/DTD/svg10.dtd">
<svg version="1.0" xmlns="http://www.w3.org/2000/svg"
 width="752.000000pt" height="752.000000pt" viewBox="0 0 752.000000 752.000000"
 preserveAspectRatio="xMidYMid meet">

<g transform="translate(0.000000,752.000000) scale(0.100000,-0.100000)"
fill="#ffff" stroke="none">
<path d="M1668 4765 c-9 -21 -8 -28 7 -45 16 -17 31 -20 117 -20 l98 0 0 -154
0 -154 -71 -4 c-97 -5 -99 -9 -99 -168 0 -155 3 -160 103 -160 l67 0 0 -45 0
-45 -69 0 c-50 0 -74 -4 -85 -16 -14 -13 -16 -56 -16 -313 0 -232 3 -301 13
-309 7 -6 44 -12 82 -14 l70 -3 3 -274 c2 -281 5 -301 43 -301 34 0 49 28 49
91 l0 59 110 0 110 0 0 -68 c0 -40 5 -73 12 -80 17 -17 309 -17 326 0 7 7 12
40 12 80 l0 68 50 0 50 0 0 -68 c0 -40 5 -73 12 -80 17 -17 1149 -17 1166 0 7
7 12 40 12 80 l0 68 943 0 943 0 67 68 67 68 0 744 c0 410 -4 750 -8 755 -4 6
-35 36 -68 68 l-60 57 -1872 0 -1872 0 0 51 c0 89 0 89 -161 89 -139 0 -139 0
-151 -25z m839 -240 l-10 -35 -259 0 -258 0 0 35 0 35 269 0 269 0 -11 -35z
m1407 0 l-39 -34 -643 -1 c-354 0 -641 4 -638 9 3 4 10 20 15 35 l11 26 666 0
667 0 -39 -35z m1053 27 c9 -6 -3 -24 -41 -61 -53 -52 -54 -53 -82 -38 -61 31
-173 58 -264 64 -108 6 -224 -12 -321 -52 l-57 -23 -51 52 c-28 29 -48 55 -45
59 10 10 846 9 861 -1z m510 -27 c-57 -34 -60 -35 -165 -35 l-107 1 -40 34
-40 35 205 0 205 0 -58 -35z m222 -124 c-30 -50 -56 -91 -59 -91 -3 0 -34 29
-68 63 l-63 64 93 56 93 56 29 -28 28 -29 -53 -91z m-1682 -103 l-95 -95 -46
46 c-25 26 -46 49 -46 53 0 13 79 100 130 144 l53 45 50 -49 49 -49 -95 -95z
m1166 82 c37 -39 67 -74 67 -78 0 -10 -99 -107 -103 -101 -28 40 -106 123
-141 150 l-45 34 51 52 51 52 27 -19 c15 -10 57 -51 93 -90z m-443 14 c315
-106 502 -428 435 -749 -25 -119 -86 -228 -179 -321 -87 -86 -137 -118 -250
-161 -63 -24 -85 -27 -201 -27 -110 -1 -141 2 -200 22 -201 67 -358 222 -426
422 -30 91 -37 234 -15 334 58 258 269 458 534 506 77 14 218 2 302 -26z
m-2280 -1 c0 -5 -11 -53 -24 -108 -78 -319 -79 -692 -2 -1010 14 -55 28 -108
31 -117 7 -17 -9 -18 -239 -18 l-246 0 0 630 0 630 240 0 c132 0 240 -3 240
-7z m1314 -5 c-5 -7 -24 -35 -43 -63 -20 -27 -50 -76 -67 -110 l-31 -60 -558
-3 c-307 -1 -562 1 -567 6 -6 6 24 150 47 223 6 18 24 19 616 19 486 0 609 -3
603 -12z m1733 -80 l93 -93 0 -445 0 -445 -92 -92 -93 -93 -67 0 -67 0 49 65
c136 179 206 439 181 666 -20 179 -90 363 -183 480 l-38 49 62 0 63 0 92 -92z
m261 -821 l-3 -282 -37 66 -38 66 0 433 0 433 38 66 37 66 3 -283 c1 -155 1
-409 0 -565z m-3888 732 l0 -70 -32 3 -33 3 -3 68 -3 67 36 0 35 0 0 -71z
m1973 -162 c-71 -175 -70 -399 2 -563 l23 -52 -52 -51 c-61 -61 -60 -61 -105
51 -49 122 -64 200 -64 333 -1 141 23 253 78 372 l35 77 54 -53 54 -53 -25
-61z m1510 41 c46 -115 60 -206 54 -358 -5 -147 -23 -222 -77 -338 l-31 -66
-53 53 -54 53 23 57 c71 173 71 380 1 553 l-26 63 52 52 52 52 16 -27 c9 -15
29 -57 43 -94z m-1767 -60 c-38 -130 -43 -342 -11 -473 8 -33 14 -63 15 -67 0
-5 -250 -8 -555 -8 -520 0 -556 1 -563 18 -4 9 -7 130 -7 267 0 138 3 258 7
268 7 16 43 17 564 17 l556 0 -6 -22z m-1716 -393 l0 -235 -35 0 -35 0 0 235
0 235 35 0 35 0 0 -235z m1794 -321 c21 -42 56 -98 77 -125 22 -26 39 -51 39
-54 0 -3 -275 -5 -610 -5 l-610 0 -10 25 c-9 22 -36 127 -54 208 l-6 27 567 0
568 0 39 -76z m298 -22 c21 -26 60 -66 87 -88 28 -21 50 -44 51 -49 0 -14 -83
-95 -98 -95 -14 0 -135 112 -164 152 l-21 30 49 49 c26 27 51 49 54 49 3 0 22
-22 42 -48z m1232 -1 l49 -50 -32 -40 c-38 -48 -141 -141 -155 -141 -6 0 -31
21 -57 46 l-46 45 91 93 c50 52 93 94 96 95 3 0 28 -21 54 -48z m494 -162 l54
-91 -27 -28 -27 -28 -94 56 -94 57 62 62 c34 35 65 63 68 63 3 0 29 -41 58
-91z m-769 -73 l54 -54 -31 -16 c-27 -14 -84 -16 -416 -16 -367 0 -436 5 -436
29 0 4 23 29 50 56 49 49 51 49 83 36 126 -51 149 -55 302 -56 131 0 159 3
220 23 53 18 114 44 120 52 1 0 25 -24 54 -54z m-2421 -41 c7 -14 12 -30 12
-35 0 -6 -106 -10 -270 -10 l-270 0 0 35 0 35 258 0 259 0 11 -25z m1421 -10
l44 -35 -675 0 c-635 0 -676 1 -681 18 -2 9 -8 25 -12 35 -7 16 27 17 636 17
l644 0 44 -35z m1551 0 l55 -35 -214 0 c-118 0 -212 2 -210 4 2 2 21 18 43 35
38 31 40 31 155 31 115 0 117 -1 171 -35z m-3020 -160 l0 -35 -85 0 -85 0 0
35 0 35 85 0 85 0 0 -35z m1290 0 l0 -35 -505 0 -505 0 0 35 0 35 505 0 505 0
0 -35z"/>
<path d="M4414 4336 c-104 -24 -191 -73 -275 -156 -117 -116 -169 -238 -169
-400 0 -242 137 -444 365 -536 56 -22 90 -29 171 -32 186 -8 308 39 433 166
88 89 123 149 151 258 36 138 23 258 -41 392 -91 188 -273 308 -484 318 -55 2
-113 -2 -151 -10z m85 -102 c26 -18 81 -101 81 -121 0 -27 -38 -12 -69 27 -18
23 -51 53 -73 67 -34 23 -37 28 -22 34 31 12 58 10 83 -7z m164 7 c30 -11 57
-83 57 -148 0 -39 -2 -43 -18 -34 -11 6 -23 31 -31 64 -6 29 -23 70 -37 90
-26 40 -20 46 29 28z m-309 -92 c97 -45 99 -97 2 -54 -28 13 -71 26 -96 30
l-44 7 23 19 c30 24 61 24 115 -2z m499 -7 c29 -25 19 -111 -20 -177 -12 -20
-12 -20 -26 0 -11 13 -12 26 -6 43 5 13 9 55 9 93 0 73 2 75 43 41z m-590
-111 c48 -11 53 -17 37 -36 -8 -10 -31 -15 -69 -15 -31 -1 -74 -7 -96 -15 -22
-8 -41 -15 -42 -15 -2 0 5 16 14 35 23 49 76 64 156 46z m400 -58 c23 -15 55
-48 72 -72 27 -39 30 -50 30 -120 0 -69 -3 -83 -30 -126 -19 -31 -49 -61 -79
-79 -62 -39 -158 -43 -222 -9 -145 77 -171 267 -52 380 52 50 93 64 171 60 56
-4 77 -10 110 -34z m317 -17 c0 -41 -81 -146 -114 -146 -16 0 -3 49 19 70 13
12 34 47 47 77 20 49 24 53 35 37 7 -10 13 -27 13 -38z m-750 -81 c0 -8 -19
-24 -42 -36 -24 -12 -62 -37 -85 -56 l-43 -34 0 35 c0 27 6 39 29 56 65 45
141 65 141 35z m770 -151 c-26 -26 -75 -51 -119 -60 -27 -6 -31 -4 -31 15 0
15 14 28 48 45 26 13 63 38 82 54 l35 30 3 -30 c2 -21 -4 -38 -18 -54z m-803
-46 c-14 -18 -37 -57 -51 -87 l-25 -54 -17 36 c-17 35 -16 36 10 80 14 25 41
57 58 71 31 24 33 25 42 7 6 -14 2 -28 -17 -53z m75 -114 c-2 -16 -4 -63 -5
-105 l-2 -76 -29 21 c-26 20 -28 24 -23 77 5 62 32 123 50 116 7 -2 11 -17 9
-33z m697 3 c-15 -34 -67 -51 -131 -44 -61 8 -73 14 -57 33 7 8 32 14 63 15
28 0 69 6 91 13 22 7 41 12 43 11 1 -2 -3 -14 -9 -28z m-581 -79 c5 -7 13 -29
17 -48 4 -19 20 -59 36 -88 l29 -52 -27 6 c-50 12 -62 24 -78 76 -19 65 -20
118 -1 118 7 0 18 -6 24 -12z m340 -27 c21 -11 59 -22 85 -26 40 -6 46 -10 36
-22 -25 -29 -50 -35 -94 -23 -54 15 -123 69 -103 81 20 13 35 11 76 -10z
m-146 -65 c29 -29 62 -58 73 -64 23 -12 20 -17 -17 -26 -29 -7 -71 22 -107 72
-58 84 -25 96 51 18z"/>
<path d="M2137 4292 c-15 -17 -17 -68 -17 -524 0 -493 0 -505 20 -523 17 -15
24 -16 45 -7 l25 12 0 519 c0 504 -1 521 -19 531 -27 14 -35 13 -54 -8z"/>
</g>
</svg>
